<svg width="30" height="36" viewBox="0 0 30 36" fill="none" xmlns="http://www.w3.org/2000/svg">
<path d="M26.7983 22.5334L24.394 21.1386L24.3395 2.44055L26.7438 3.8353L26.7983 22.5334Z" fill="#1D47F7" stroke="#1D47F7" stroke-width="0.375" stroke-linejoin="round"/>
<path d="M26.7364 3.83522L24.332 2.44047L26.7537 1.04572L29.1556 2.44047L26.7364 3.83522Z" fill="#8EA3FB" stroke="#1D47F7" stroke-width="0.375" stroke-linejoin="round"/>
<path d="M29.163 2.44055L29.2175 21.1386L26.7983 22.5334L26.7438 3.8353L29.163 2.44055Z" fill="#617EF9" stroke="#1D47F7" stroke-width="0.375" stroke-linejoin="round"/>
<path d="M20.8555 25.8347L18.4536 24.4375L18.3991 7.78455L20.8035 9.1793L20.8555 25.8347Z" fill="#1D47F7" stroke="#1D47F7" stroke-width="0.375" stroke-linejoin="round"/>
<path d="M20.7961 9.17933L18.3917 7.78458L20.8109 6.38983L23.2153 7.78458L20.7961 9.17933Z" fill="#8EA3FB" stroke="#1D47F7" stroke-width="0.375" stroke-linejoin="round"/>
<path d="M23.2227 7.78455L23.2747 24.4375L20.8555 25.8347L20.8035 9.1793L23.2227 7.78455Z" fill="#617EF9" stroke="#1D47F7" stroke-width="0.375" stroke-linejoin="round"/>
<path d="M15.0439 29.0768L12.6396 27.6821L12.5851 14.2069L14.9894 15.6017L15.0439 29.0768Z" fill="#1D47F7" stroke="#1D47F7" stroke-width="0.375" stroke-linejoin="round"/>
<path d="M14.9894 15.6016L12.5851 14.2069L15.0068 12.8121L17.4086 14.2069L14.9894 15.6016Z" fill="#8EA3FB" stroke="#1D47F7" stroke-width="0.375" stroke-linejoin="round"/>
<path d="M17.4093 14.2069L17.4637 27.6821L15.0445 29.0768L14.9901 15.6017L17.4093 14.2069Z" fill="#617EF9" stroke="#1D47F7" stroke-width="0.375" stroke-linejoin="round"/>
<path d="M9.1878 32.3065L6.78344 30.9117L6.73145 20.1617L9.13332 21.5565L9.1878 32.3065Z" fill="#1D47F7" stroke="#1D47F7" stroke-width="0.375" stroke-linejoin="round"/>
<path d="M9.13332 21.5565L6.73145 20.1618L9.15065 18.7645L11.555 20.1618L9.13332 21.5565Z" fill="#8EA3FB" stroke="#1D47F7" stroke-width="0.375" stroke-linejoin="round"/>
<path d="M11.5541 20.1605L11.6086 30.908L9.18692 32.3052L9.13245 21.5553L11.5541 20.1605Z" fill="#617EF9" stroke="#1D47F7" stroke-width="0.375" stroke-linejoin="round"/>
<path d="M3.26235 35.7043L0.857994 34.3096L0.791138 10.0597L3.19301 11.4544L3.26235 35.7043Z" fill="#1D47F7" stroke="#1D47F7" stroke-width="0.375" stroke-linejoin="round"/>
<path d="M3.18435 11.4544L0.782471 10.0597L3.20168 8.66492L5.60356 10.0597L3.18435 11.4544Z" fill="#1D47F7" fill-opacity="0.5" stroke="#1D47F7" stroke-width="0.375" stroke-linejoin="round"/>
<path d="M5.61226 10.0597L5.6816 34.3096L3.26239 35.7043L3.19305 11.4544L5.61226 10.0597Z" fill="#1D47F7" fill-opacity="0.7" stroke="#1D47F7" stroke-width="0.375" stroke-linejoin="round"/>
</svg>
